<svg xmlns="http://www.w3.org/2000/svg" width="100%" height="100%" xmlns:xlink="http://www.w3.org/1999/xlink" class="x6-graph-svg" viewBox="470 95 252.5 275"><defs><marker refX="-1" id="marker-v0-1713744414" overflow="visible" orient="auto" markerUnits="userSpaceOnUse"><path stroke="#333333" fill="#333333" transform="rotate(180)" d="M 0 0 L 10 -5 L 10 5 Z"/></marker><marker refX="1" id="marker-v0-3681928428" overflow="visible" orient="auto" markerUnits="userSpaceOnUse"><path stroke="#333333" fill="#333333"/></marker><marker refX="-1" id="marker-v0-2174865432" overflow="visible" orient="auto" markerUnits="userSpaceOnUse"><path stroke="#333" fill="#333" transform="rotate(180)" d="M 0 0 L 12 -4 L 12 4 Z"/></marker></defs><g class="x6-graph-svg-viewport" transform="matrix(1,0,0,1,0,0)"><g class="x6-graph-svg-primer"/><g class="x6-graph-svg-stage"><!--z-index:1--><g data-cell-id="8061fd1a-53f3-4f83-b913-a7d388e8deb8" data-shape="process" class="x6-cell x6-node" transform="translate(560,280)"><circle fill="transparent" stroke="#333333" stroke-width="1.5" cx="45" cy="45" r="45"/><text font-size="14" xml:space="preserve" fill="#000000" text-anchor="middle" font-family="Arial, helvetica, sans-serif" transform="matrix(1,0,0,1,45,45)"><tspan dy="-0.2em" class="v-line">BioCantinas</tspan><tspan dy="1em" x="0" class="v-line">System</tspan></text><rect opacity="0" width="99.00000000000001" height="99.00000000000001"/><g class="x6-port x6-port-top" transform="matrix(1,0,0,1,45,0)"><circle r="4" fill="#fff" stroke="#5F95FF" port="f1b75de3-efb8-4007-9a0e-9fde1f16c7db" port-group="top" class="x6-port-body" magnet="true" stroke-width="1" style="visibility: hidden;"/></g><g class="x6-port x6-port-right" transform="matrix(1,0,0,1,90,45)"><circle r="4" fill="#fff" stroke="#5F95FF" port="e3788d3a-7217-4e1c-ac43-3cb3a2cce9b8" port-group="right" class="x6-port-body" magnet="true" stroke-width="1" style="visibility: hidden;"/></g><g class="x6-port x6-port-bottom" transform="matrix(1,0,0,1,45,90)"><circle r="4" fill="#fff" stroke="#5F95FF" port="60d57e43-790d-42a4-ad98-a0f762e85406" port-group="bottom" class="x6-port-body" magnet="true" stroke-width="1" style="visibility: hidden;"/></g><g class="x6-port x6-port-left" transform="matrix(1,0,0,1,0,45)"><circle r="4" fill="#fff" stroke="#5F95FF" port="e1dfd06b-4521-4730-a80e-2662a147b3ec" port-group="left" class="x6-port-body" magnet="true" stroke-width="1" style="visibility: hidden;"/></g></g><!--z-index:2--><g data-cell-id="b169263c-48ca-445e-ae1e-77370bfcbe2e" data-shape="actor" class="x6-cell x6-node" transform="translate(548.75,95)"><rect fill="transparent" stroke="#333333" stroke-width="1.5" fill-opacity="0" width="112.5" height="60"/><text font-size="14" xml:space="preserve" fill="#000000" text-anchor="middle" font-family="Arial, helvetica, sans-serif" transform="matrix(1,0,0,1,56.3,30)"><tspan dy="0.3em" class="v-line">User</tspan></text><g class="x6-port x6-port-top" transform="matrix(1,0,0,1,56,0)"><circle r="4" fill="#fff" stroke="#5F95FF" port="a6468821-4fba-4884-b0ce-ea242468a84f" port-group="top" class="x6-port-body" magnet="true" stroke-width="1" style="visibility: hidden;"/></g><g class="x6-port x6-port-right" transform="matrix(1,0,0,1,113,30)"><circle r="4" fill="#fff" stroke="#5F95FF" port="f67201ac-fa65-4e17-82d5-0f3f77ae4814" port-group="right" class="x6-port-body" magnet="true" stroke-width="1" style="visibility: hidden;"/></g><g class="x6-port x6-port-bottom" transform="matrix(1,0,0,1,56,60)"><circle r="4" fill="#fff" stroke="#5F95FF" port="22ddc4a4-f171-4181-97d2-d504014e7358" port-group="bottom" class="x6-port-body" magnet="true" stroke-width="1" id="v2" style="visibility: hidden;"/></g><g class="x6-port x6-port-left" transform="matrix(1,0,0,1,0,30)"><circle r="4" fill="#fff" stroke="#5F95FF" port="ae54c296-43ac-4aee-9cc1-cd6d82acb574" port-group="left" class="x6-port-body" magnet="true" stroke-width="1" id="v3" style="visibility: hidden;"/></g></g><!--z-index:3--><!--z-index:4--><g data-cell-id="0bbfdab6-6a41-4cc7-b5f2-7a199129e539" data-shape="flow" class="x6-cell x6-edge"><path fill="none" cursor="pointer" stroke="transparent" stroke-linecap="round" stroke-linejoin="round" stroke-width="10" d="M 604.99 274 C 604.99 217.5 604.76 217.5 604.76 161"/><path fill="none" pointer-events="none" stroke-linejoin="round" stroke="#333333" stroke-width="1.5" d="M 604.99 274 C 604.99 217.5 604.76 217.5 604.76 161" marker-end="url(#marker-v0-1713744414)" marker-start="url(#marker-v0-3681928428)"/><g class="x6-edge-labels"><g class="x6-edge-label" data-index="0" cursor="default" transform="matrix(1,0,0,1,604.875,217.5)"><rect fill="#fff" rx="3" ry="3" width="0" height="0" transform="matrix(1,0,0,1,0,0)"/><text font-size="14" xml:space="preserve" display="none" fill="#000" text-anchor="middle" pointer-events="none"><tspan dy="0.3em" class="v-line v-empty-line" style="fill-opacity: 0; stroke-opacity: 0;">-</tspan></text></g></g></g><g data-cell-id="63371cd7-1f87-4ddb-bd1f-f1809bd8d9ad" data-shape="flow" class="x6-cell x6-edge"><path fill="none" cursor="pointer" stroke="transparent" stroke-linecap="round" stroke-linejoin="round" stroke-width="10" d="M 545.36 129.95 C 506.82 169.06 468.29 208.18 470 240 C 471.71 271.82 513.68 296.35 555.64 320.88"/><path fill="none" pointer-events="none" stroke-linejoin="round" stroke="#333333" stroke-width="1.5" d="M 545.36 129.95 C 506.82 169.06 468.29 208.18 470 240 C 471.71 271.82 513.68 296.35 555.64 320.88" marker-end="url(#marker-v0-1713744414)" marker-start="url(#marker-v0-3681928428)"/><g class="x6-edge-labels"><g class="x6-edge-label" data-index="0" cursor="default" transform="matrix(1,0,0,1,470.2677917480469,232.7974395751953)"><rect fill="#fff" rx="3" ry="3" width="153.59375" height="15.71875" transform="matrix(1,0,0,1,-76.8,-8.9)"/><text font-size="14" xml:space="preserve" fill="#000" text-anchor="middle" pointer-events="none"><tspan dy="0.3em" class="v-line">Submit login credentials</tspan></text></g></g></g><!--z-index:11--><g data-cell-id="3ffec3f0-24ee-4c92-a1e7-f92faf6184ea" data-shape="td-text-block" class="x6-cell x6-node" transform="translate(610,200)"><rect fill="transparent" stroke="#333333" stroke-width="2" fill-opacity="0" stroke-opacity="0" width="112.5" height="60"/><text font-size="14" xml:space="preserve" fill="#000000" text-anchor="middle" font-family="Arial, helvetica, sans-serif" transform="matrix(1,0,0,1,56.3,30)"><tspan dy="-0.2em" class="v-line">Authentication JWT</tspan><tspan dy="1em" x="0" class="v-line">Token</tspan></text></g><!--z-index:12--></g><g class="x6-graph-svg-decorator"/><g class="x6-graph-svg-overlay"/></g></svg>