<?plantuml 1.2026.2?><svg xmlns="http://www.w3.org/2000/svg" xmlns:xlink="http://www.w3.org/1999/xlink" contentStyleType="text/css" data-diagram-type="DESCRIPTION" height="650px" preserveAspectRatio="none" style="width:591px;height:650px;background:#FFFFFF;" version="1.1" viewBox="0 0 591 650" width="591.5px" zoomAndPan="magnify"><defs/><g><!--cluster BioCantinas Order System--><g class="cluster" data-qualified-name="BioCantinas Order System" data-source-line="8" id="ent0004"><rect fill="none" height="466.5" rx="1.25" ry="1.25" style="stroke:#181818;stroke-width:0.5;" width="547" x="41.5" y="3.5"/><text fill="#000000" font-family="sans-serif" font-size="7" font-weight="bold" lengthAdjust="spacing" textLength="88.6929" x="270.6536" y="12.0537">BioCantinas Order System</text></g><!--entity PlaceOrderUC--><g class="entity" data-qualified-name="BioCantinas Order System.PlaceOrderUC" data-source-line="10" id="ent0005"><ellipse cx="110.6591" cy="330.0836" fill="#F1F1F1" rx="27.9091" ry="8.0836" style="stroke:#181818;stroke-width:0.25;"/><text fill="#000000" font-family="sans-serif" font-size="7" lengthAdjust="spacing" textLength="37.3481" x="91.9851" y="332.9888">Place Order</text></g><!--entity ViewOrderUC--><g class="entity" data-qualified-name="BioCantinas Order System.ViewOrderUC" data-source-line="11" id="ent0006"><ellipse cx="304.506" cy="237.5836" fill="#F1F1F1" rx="26.256" ry="8.0836" style="stroke:#181818;stroke-width:0.25;"/><text fill="#000000" font-family="sans-serif" font-size="7" lengthAdjust="spacing" textLength="35.0103" x="287.0009" y="240.4888">View Order</text></g><!--entity CancelOrderUC--><g class="entity" data-qualified-name="BioCantinas Order System.CancelOrderUC" data-source-line="12" id="ent0007"><ellipse cx="110.685" cy="198.0836" fill="#F1F1F1" rx="30.935" ry="8.0836" style="stroke:#181818;stroke-width:0.25;"/><text fill="#000000" font-family="sans-serif" font-size="7" lengthAdjust="spacing" textLength="41.6274" x="89.8713" y="200.9888">Cancel Order</text></g><!--entity TokenTheftAbuse--><g class="entity" data-qualified-name="BioCantinas Order System.TokenTheftAbuse" data-source-line="14" id="ent0008"><ellipse cx="508.8475" cy="111.4695" fill="#FFCDD2" rx="67.5975" ry="14.7195" style="stroke:#181818;stroke-width:0.25;"/><text fill="#000000" font-family="sans-serif" font-size="7" lengthAdjust="spacing" textLength="123.7271" x="446.984" y="114.3748">Unauthorized Order / Account Takeover</text></g><!--entity ReplayAbuse--><g class="entity" data-qualified-name="BioCantinas Order System.ReplayAbuse" data-source-line="15" id="ent0009"><ellipse cx="304.5873" cy="201.4675" fill="#FFCDD2" rx="46.3373" ry="10.4675" style="stroke:#181818;stroke-width:0.25;"/><text fill="#000000" font-family="sans-serif" font-size="7" lengthAdjust="spacing" textLength="76.6445" x="266.2651" y="204.3727">Replay / Duplicate Order</text></g><!--entity InjectionAbuse--><g class="entity" data-qualified-name="BioCantinas Order System.InjectionAbuse" data-source-line="16" id="ent0010"><ellipse cx="304.399" cy="405.5798" fill="#FFCDD2" rx="53.149" ry="11.8298" style="stroke:#181818;stroke-width:0.25;"/><text fill="#000000" font-family="sans-serif" font-size="7" lengthAdjust="spacing" textLength="92.2134" x="258.2923" y="408.4851">Malformed / Injection Payload</text></g><!--entity PrivEscalationAbuse--><g class="entity" data-qualified-name="BioCantinas Order System.PrivEscalationAbuse" data-source-line="17" id="ent0011"><ellipse cx="508.8027" cy="318.5605" fill="#FFCDD2" rx="71.8027" ry="15.5605" style="stroke:#181818;stroke-width:0.25;"/><text fill="#000000" font-family="sans-serif" font-size="7" lengthAdjust="spacing" textLength="132.6753" x="442.4651" y="321.4658">Privilege Escalation / Order Outside Scope</text></g><!--entity DoSAbuse--><g class="entity" data-qualified-name="BioCantinas Order System.DoSAbuse" data-source-line="18" id="ent0012"><ellipse cx="304.4871" cy="275.4974" fill="#FFCDD2" rx="55.2371" ry="12.2474" style="stroke:#181818;stroke-width:0.25;"/><text fill="#000000" font-family="sans-serif" font-size="7" lengthAdjust="spacing" textLength="96.8687" x="256.0527" y="278.4027">Denial of Service (Order Flood)</text></g><!--entity BusinessLogicAbuse--><g class="entity" data-qualified-name="BioCantinas Order System.BusinessLogicAbuse" data-source-line="19" id="ent0013"><ellipse cx="304.4902" cy="448.598" fill="#FFCDD2" rx="61.9902" ry="13.598" style="stroke:#181818;stroke-width:0.25;"/><text fill="#000000" font-family="sans-serif" font-size="7" lengthAdjust="spacing" textLength="111.665" x="248.6576" y="451.5033">High-value / Excess Quantity Abuse</text></g><!--entity IdempotencyMitigate--><g class="entity" data-qualified-name="BioCantinas Order System.IdempotencyMitigate" data-source-line="21" id="ent0014"><ellipse cx="110.8109" cy="135.5622" fill="#C8E6C9" rx="60.5609" ry="13.3122" style="stroke:#181818;stroke-width:0.25;"/><text fill="#000000" font-family="sans-serif" font-size="7" lengthAdjust="spacing" textLength="108.5615" x="56.5301" y="138.4675">Idempotency Keys &amp; Deduplication</text></g><!--entity TokenMitigate--><g class="entity" data-qualified-name="BioCantinas Order System.TokenMitigate" data-source-line="22" id="ent0015"><ellipse cx="304.518" cy="34.9036" fill="#C8E6C9" rx="57.268" ry="12.6536" style="stroke:#181818;stroke-width:0.25;"/><text fill="#000000" font-family="sans-serif" font-size="7" lengthAdjust="spacing" textLength="101.3564" x="253.8398" y="37.8089">Short-lived Tokens + Revocation</text></g><!--entity AuthMitigate--><g class="entity" data-qualified-name="BioCantinas Order System.AuthMitigate" data-source-line="23" id="ent0016"><ellipse cx="304.4656" cy="74.9931" fill="#C8E6C9" rx="41.4656" ry="9.4931" style="stroke:#181818;stroke-width:0.25;"/><text fill="#000000" font-family="sans-serif" font-size="7" lengthAdjust="spacing" textLength="64.9756" x="271.9778" y="77.8984">Strong Auth &amp; RBAC</text></g><!--entity ValidationMitigate--><g class="entity" data-qualified-name="BioCantinas Order System.ValidationMitigate" data-source-line="24" id="ent0017"><ellipse cx="110.7822" cy="385.9564" fill="#C8E6C9" rx="57.5322" ry="12.7064" style="stroke:#181818;stroke-width:0.25;"/><text fill="#000000" font-family="sans-serif" font-size="7" lengthAdjust="spacing" textLength="101.9375" x="59.8134" y="388.8617">Schema Validation &amp; Rate Limits</text></g><!--entity ServerAuthzMitigate--><g class="entity" data-qualified-name="BioCantinas Order System.ServerAuthzMitigate" data-source-line="25" id="ent0018"><ellipse cx="304.4166" cy="318.3833" fill="#C8E6C9" rx="58.4166" ry="12.8833" style="stroke:#181818;stroke-width:0.25;"/><text fill="#000000" font-family="sans-serif" font-size="7" lengthAdjust="spacing" textLength="103.8789" x="252.4771" y="321.2886">Server-side Authorization Checks</text></g><!--entity RateLimitMitigate--><g class="entity" data-qualified-name="BioCantinas Order System.RateLimitMitigate" data-source-line="26" id="ent0019"><ellipse cx="110.684" cy="256.8868" fill="#C8E6C9" rx="44.684" ry="10.1368" style="stroke:#181818;stroke-width:0.25;"/><text fill="#000000" font-family="sans-serif" font-size="7" lengthAdjust="spacing" textLength="72.748" x="74.31" y="259.7921">IP &amp; User Rate Limiting</text></g><!--entity AuditMitigate--><g class="entity" data-qualified-name="BioCantinas Order System.AuditMitigate" data-source-line="27" id="ent0020"><ellipse cx="110.7795" cy="429.9559" fill="#C8E6C9" rx="61.2795" ry="13.4559" style="stroke:#181818;stroke-width:0.25;"/><text fill="#000000" font-family="sans-serif" font-size="7" lengthAdjust="spacing" textLength="110.1235" x="55.7177" y="432.8612">Audit Logging &amp; Anomaly Detection</text></g><!--entity User--><g class="entity" data-qualified-name="User" data-source-line="5" id="ent0002"><ellipse cx="10.3896" cy="314.5" fill="#F1F1F1" rx="4" ry="4" style="stroke:#181818;stroke-width:0.25;"/><path d="M10.3896,318.5 L10.3896,332 M3.8896,322.5 L16.8896,322.5 M10.3896,332 L3.8896,339.5 M10.3896,332 L16.8896,339.5" fill="none" style="stroke:#181818;stroke-width:0.25;"/><text fill="#000000" font-family="sans-serif" font-size="7" lengthAdjust="spacing" textLength="14.7793" x="3" y="347.8037">User</text></g><!--entity Attacker--><g class="entity" data-qualified-name="Attacker" data-source-line="6" id="ent0003"><ellipse cx="110.8379" cy="526" fill="#F1F1F1" rx="4" ry="4" style="stroke:#181818;stroke-width:0.25;"/><path d="M110.8379,530 L110.8379,543.5 M104.3379,534 L117.3379,534 M110.8379,543.5 L104.3379,551 M110.8379,543.5 L117.3379,551" fill="none" style="stroke:#181818;stroke-width:0.25;"/><text fill="#000000" font-family="sans-serif" font-size="7" lengthAdjust="spacing" textLength="25.6758" x="98" y="559.3037">Attacker</text></g><!--link User to PlaceOrderUC--><g class="link" data-entity-1="ent0002" data-entity-2="ent0005" data-link-type="dependency" data-source-line="29" id="lnk21"><path d="M18.14,330 C31.43,330 57.61,330 79.59,330" fill="none" id="User-to-PlaceOrderUC" style="stroke:#181818;stroke-width:0.5;"/><polygon fill="#181818" points="82.59,330,78.09,328,80.09,330,78.09,332,82.59,330" style="stroke:#181818;stroke-width:0.5;"/></g><!--link User to ViewOrderUC--><g class="link" data-entity-1="ent0002" data-entity-2="ent0006" data-link-type="dependency" data-source-line="30" id="lnk22"><path d="M12.36,349.79 C14.965,380.99 21.85,439.38 37.5,452 C103.245,505 166.585,508.49 227.5,450 C258.93,419.82 214.805,288.135 242.5,254.5 C251.09,244.065 262.4864,240.1122 275.1764,238.4172" fill="none" id="User-to-ViewOrderUC" style="stroke:#181818;stroke-width:0.5;"/><polygon fill="#181818" points="278.15,238.02,273.4248,236.6334,275.672,238.351,273.9544,240.5982,278.15,238.02" style="stroke:#181818;stroke-width:0.5;"/></g><!--link User to CancelOrderUC--><g class="link" data-entity-1="ent0002" data-entity-2="ent0007" data-link-type="dependency" data-source-line="31" id="lnk23"><path d="M12.315,310.215 C14.58,290.095 20.74,258.97 37.5,238 C51.09,220.995 71.1389,211.1691 87.6139,205.1191" fill="none" id="User-to-CancelOrderUC" style="stroke:#181818;stroke-width:0.5;"/><polygon fill="#181818" points="90.43,204.085,85.5164,203.7588,88.0832,204.9468,86.8952,207.5136,90.43,204.085" style="stroke:#181818;stroke-width:0.5;"/></g><!--link Attacker to TokenTheftAbuse--><g class="link" data-entity-1="ent0003" data-entity-2="ent0008" data-link-type="dependency" data-source-line="33" id="lnk24"><path d="M123.545,545.875 C145.025,552.87 190.625,564.775 227.5,554.5 C297.03,535.12 319.91,525.63 366.5,470.5 C369.535,466.91 475.17,196.32 501.385,129.1" fill="none" id="Attacker-to-TokenTheftAbuse" style="stroke:#181818;stroke-width:0.5;"/><polygon fill="#181818" points="502.475,126.305,498.9767,129.7708,501.5667,128.6341,502.7033,131.2241,502.475,126.305" style="stroke:#181818;stroke-width:0.5;"/></g><!--link Attacker to ReplayAbuse--><g class="link" data-entity-1="ent0003" data-entity-2="ent0009" data-link-type="dependency" data-source-line="34" id="lnk25"><path d="M123.55,536.115 C148.365,524.515 204.05,494.545 227.5,450 C251.31,404.775 210.835,260.615 242.5,220.5 C247.83,213.745 252.69,210.3305 260.835,207.4655" fill="none" id="Attacker-to-ReplayAbuse" style="stroke:#181818;stroke-width:0.5;"/><polygon fill="#181818" points="263.665,206.47,258.7563,206.0765,261.3066,207.2996,260.0836,209.8499,263.665,206.47" style="stroke:#181818;stroke-width:0.5;"/></g><!--link Attacker to InjectionAbuse--><g class="link" data-entity-1="ent0003" data-entity-2="ent0010" data-link-type="dependency" data-source-line="35" id="lnk26"><path d="M123.505,543.405 C147.26,546.33 199.665,548.93 227.5,520.5 C257.25,490.11 215,458.435 242.5,426 C247.63,419.945 251.8221,416.8079 259.2271,413.7879" fill="none" id="Attacker-to-InjectionAbuse" style="stroke:#181818;stroke-width:0.5;"/><polygon fill="#181818" points="262.005,412.655,257.0829,412.5024,259.6901,413.5991,258.5935,416.2063,262.005,412.655" style="stroke:#181818;stroke-width:0.5;"/></g><!--link Attacker to PrivEscalationAbuse--><g class="link" data-entity-1="ent0003" data-entity-2="ent0011" data-link-type="dependency" data-source-line="36" id="lnk27"><path d="M123.585,551.455 C137.86,562.28 162.55,578.91 187,585.5 C287.85,612.665 337.555,646.96 422,585.5 C464.435,554.61 496.0318,389.4808 505.1318,337.0658" fill="none" id="Attacker-to-PrivEscalationAbuse" style="stroke:#181818;stroke-width:0.5;"/><polygon fill="#181818" points="505.645,334.11,502.9047,338.2016,505.2174,336.5732,506.8458,338.8858,505.645,334.11" style="stroke:#181818;stroke-width:0.5;"/></g><!--link Attacker to DoSAbuse--><g class="link" data-entity-1="ent0003" data-entity-2="ent0012" data-link-type="dependency" data-source-line="37" id="lnk28"><path d="M123.64,538.855 C150.865,532.785 214.52,517.05 227.5,500 C254.97,463.92 214.78,332.385 242.5,296.5 C247.19,290.425 250.9751,287.2991 258.0501,284.2141" fill="none" id="Attacker-to-DoSAbuse" style="stroke:#181818;stroke-width:0.5;"/><polygon fill="#181818" points="260.8,283.015,255.8757,282.9803,258.5084,284.0142,257.4745,286.6469,260.8,283.015" style="stroke:#181818;stroke-width:0.5;"/></g><!--link Attacker to BusinessLogicAbuse--><g class="link" data-entity-1="ent0003" data-entity-2="ent0013" data-link-type="dependency" data-source-line="38" id="lnk29"><path d="M123.535,544.685 C145.595,549.73 192.84,557.405 227.5,541 C262.345,524.505 285.4242,486.2211 296.2942,464.7661" fill="none" id="Attacker-to-BusinessLogicAbuse" style="stroke:#181818;stroke-width:0.5;"/><polygon fill="#181818" points="297.65,462.09,293.8321,465.2003,296.5201,464.3201,297.4003,467.0081,297.65,462.09" style="stroke:#181818;stroke-width:0.5;"/></g><!--link PlaceOrderUC to TokenTheftAbuse--><g class="link" data-entity-1="ent0005" data-entity-2="ent0008" data-link-type="dependency" data-source-line="40" id="lnk30"><path d="M120.15,322.425 C133.67,311.335 160.61,290.82 187,280 C203.975,273.035 215.095,285.515 227.5,272 C268.77,227.035 198.93,178.235 242.5,135.5 C269.93,108.595 370.3861,106.4003 439.8311,108.2453" fill="none" id="PlaceOrderUC-to-TokenTheftAbuse" style="stroke:#FF0000;stroke-width:1;"/><polygon fill="#FF0000" points="442.83,108.325,438.3847,106.2062,440.3309,108.2586,438.2785,110.2048,442.83,108.325" style="stroke:#FF0000;stroke-width:1;"/><text fill="#000000" font-family="sans-serif" font-size="6.5" lengthAdjust="spacing" textLength="39.7522" x="284.75" y="107.0142">threatened by</text></g><!--link PlaceOrderUC to ReplayAbuse--><g class="link" data-entity-1="ent0005" data-entity-2="ent0009" data-link-type="dependency" data-source-line="41" id="lnk31"><path d="M131.35,324.52 C162.84,315.76 220.93,298.85 227.5,291.5 C249,267.455 220.76,244.32 242.5,220.5 C248.375,214.06 253.5414,210.7507 261.8314,207.9157" fill="none" id="PlaceOrderUC-to-ReplayAbuse" style="stroke:#FF0000;stroke-width:1;"/><polygon fill="#FF0000" points="264.67,206.945,259.7649,206.5087,262.3045,207.754,261.0593,210.2935,264.67,206.945" style="stroke:#FF0000;stroke-width:1;"/><text fill="#000000" font-family="sans-serif" font-size="6.5" lengthAdjust="spacing" textLength="39.7522" x="187.5" y="289.5142">threatened by</text></g><!--link PlaceOrderUC to InjectionAbuse--><g class="link" data-entity-1="ent0005" data-entity-2="ent0010" data-link-type="dependency" data-source-line="42" id="lnk32"><path d="M130.095,335.885 C153.365,343.36 193.97,357.09 227.5,372 C234.405,375.07 235.67,376.77 242.5,380 C253.945,385.405 264.0691,389.7295 275.0891,394.1895" fill="none" id="PlaceOrderUC-to-InjectionAbuse" style="stroke:#FF0000;stroke-width:1;"/><polygon fill="#FF0000" points="277.87,395.315,274.449,391.7729,275.5526,394.3771,272.9484,395.4807,277.87,395.315" style="stroke:#FF0000;stroke-width:1;"/><text fill="#000000" font-family="sans-serif" font-size="6.5" lengthAdjust="spacing" textLength="39.7522" x="187.5" y="355.0142">threatened by</text></g><!--link PlaceOrderUC to PrivEscalationAbuse--><g class="link" data-entity-1="ent0005" data-entity-2="ent0011" data-link-type="dependency" data-source-line="43" id="lnk33"><path d="M137.3,332.655 C168.885,335.935 218.98,341.34 227.5,343.5 C234.46,345.26 235.45,348.14 242.5,349.5 C296.615,359.92 311.71,355.42 366.5,349.5 C399.685,345.91 433.5824,338.4737 461.3724,331.4137" fill="none" id="PlaceOrderUC-to-PrivEscalationAbuse" style="stroke:#FF0000;stroke-width:1;"/><polygon fill="#FF0000" points="464.28,330.675,459.4261,329.8446,461.857,331.2906,460.411,333.7214,464.28,330.675" style="stroke:#FF0000;stroke-width:1;"/><text fill="#000000" font-family="sans-serif" font-size="6.5" lengthAdjust="spacing" textLength="39.7522" x="284.75" y="347.5142">threatened by</text></g><!--link PlaceOrderUC to DoSAbuse--><g class="link" data-entity-1="ent0005" data-entity-2="ent0012" data-link-type="dependency" data-source-line="44" id="lnk34"><path d="M134.985,334.12 C159.925,337.165 199.36,338.225 227.5,321 C238.39,314.33 232.535,304.48 242.5,296.5 C249.15,291.175 254.4135,288.2117 262.4985,285.2017" fill="none" id="PlaceOrderUC-to-DoSAbuse" style="stroke:#FF0000;stroke-width:1;"/><polygon fill="#FF0000" points="265.31,284.155,260.395,283.8507,262.9671,285.0272,261.7906,287.5994,265.31,284.155" style="stroke:#FF0000;stroke-width:1;"/><text fill="#000000" font-family="sans-serif" font-size="6.5" lengthAdjust="spacing" textLength="39.7522" x="187.5" y="319.0142">threatened by</text></g><!--link PlaceOrderUC to BusinessLogicAbuse--><g class="link" data-entity-1="ent0005" data-entity-2="ent0013" data-link-type="dependency" data-source-line="45" id="lnk35"><path d="M126.92,336.58 C139.95,342.565 158.485,352.32 172,364.5 C180.52,372.175 177.965,378.435 187,385.5 C202.25,397.415 212.685,389.05 227.5,401.5 C237.275,409.71 232.62,417.91 242.5,426 C248.745,431.11 253.485,433.98 261.08,437.1" fill="none" id="PlaceOrderUC-to-BusinessLogicAbuse" style="stroke:#FF0000;stroke-width:1;"/><polygon fill="#FF0000" points="263.855,438.24,260.4525,434.6801,261.5425,437.29,258.9326,438.3801,263.855,438.24" style="stroke:#FF0000;stroke-width:1;"/><text fill="#000000" font-family="sans-serif" font-size="6.5" lengthAdjust="spacing" textLength="39.7522" x="187.5" y="383.5142">threatened by</text></g><!--link ViewOrderUC to TokenTheftAbuse--><g class="link" data-entity-1="ent0006" data-entity-2="ent0008" data-link-type="dependency" data-source-line="47" id="lnk36"><path d="M327.385,233.49 C339.395,230.81 354.21,226.63 366.5,220.5 C418.035,194.8 467.1391,151.1805 491.4741,127.9705" fill="none" id="ViewOrderUC-to-TokenTheftAbuse" style="stroke:#FF0000;stroke-width:1;"/><polygon fill="#FF0000" points="493.645,125.9,489.0083,127.5585,491.8359,127.6255,491.769,130.4531,493.645,125.9" style="stroke:#FF0000;stroke-width:1;"/><text fill="#000000" font-family="sans-serif" font-size="6.5" lengthAdjust="spacing" textLength="39.7522" x="382" y="185.5142">threatened by</text></g><!--link ViewOrderUC to PrivEscalationAbuse--><g class="link" data-entity-1="ent0006" data-entity-2="ent0011" data-link-type="dependency" data-source-line="48" id="lnk37"><path d="M325.465,242.31 C337.55,245.36 353.06,249.64 366.5,254.5 C406.94,269.115 449.2301,288.9867 477.4501,302.9217" fill="none" id="ViewOrderUC-to-PrivEscalationAbuse" style="stroke:#FF0000;stroke-width:1;"/><polygon fill="#FF0000" points="480.14,304.25,476.9906,300.4643,477.8984,303.1431,475.2196,304.0509,480.14,304.25" style="stroke:#FF0000;stroke-width:1;"/><text fill="#000000" font-family="sans-serif" font-size="6.5" lengthAdjust="spacing" textLength="39.7522" x="382" y="258.5142">threatened by</text></g><!--link CancelOrderUC to PrivEscalationAbuse--><g class="link" data-entity-1="ent0007" data-entity-2="ent0011" data-link-type="dependency" data-source-line="50" id="lnk38"><path d="M126.795,191.095 C174.6,170.99 322.24,117.365 422,174 C471.67,202.195 494.9817,268.7082 503.6017,299.9332" fill="none" id="CancelOrderUC-to-PrivEscalationAbuse" style="stroke:#FF0000;stroke-width:1;"/><polygon fill="#FF0000" points="504.4,302.825,505.1304,297.955,503.7347,300.4151,501.2746,299.0195,504.4,302.825" style="stroke:#FF0000;stroke-width:1;"/><text fill="#000000" font-family="sans-serif" font-size="6.5" lengthAdjust="spacing" textLength="39.7522" x="284.75" y="147.0142">threatened by</text></g><!--link CancelOrderUC to ReplayAbuse--><g class="link" data-entity-1="ent0007" data-entity-2="ent0009" data-link-type="dependency" data-source-line="51" id="lnk39"><path d="M136.195,193.35 C159.74,189.56 196.02,185.24 227.5,188 C241.74,189.245 254.3577,191.2153 267.7077,193.7503" fill="none" id="CancelOrderUC-to-ReplayAbuse" style="stroke:#FF0000;stroke-width:1;"/><polygon fill="#FF0000" points="270.655,194.31,266.6071,191.5056,268.1989,193.8436,265.8609,195.4354,270.655,194.31" style="stroke:#FF0000;stroke-width:1;"/><text fill="#000000" font-family="sans-serif" font-size="6.5" lengthAdjust="spacing" textLength="39.7522" x="187.5" y="185.5142">threatened by</text></g><!--link CancelOrderUC to DoSAbuse--><g class="link" data-entity-1="ent0007" data-entity-2="ent0012" data-link-type="dependency" data-source-line="52" id="lnk40"><path d="M126.45,204.94 C150.74,215.925 199.91,237.745 242.5,254 C252.59,257.85 260.8811,260.8356 270.8561,264.3006" fill="none" id="CancelOrderUC-to-DoSAbuse" style="stroke:#FF0000;stroke-width:1;"/><polygon fill="#FF0000" points="273.69,265.285,270.0954,261.9191,271.3284,264.4647,268.7829,265.6977,273.69,265.285" style="stroke:#FF0000;stroke-width:1;"/><text fill="#000000" font-family="sans-serif" font-size="6.5" lengthAdjust="spacing" textLength="39.7522" x="187.5" y="230.0142">threatened by</text></g><!--link CancelOrderUC to ViewOrderUC--><g class="link" data-entity-1="ent0007" data-entity-2="ent0006" data-link-type="dependency" data-source-line="55" id="lnk41"><path d="M138.16,201.815 C161.805,205.33 197.085,210.985 227.5,217.5 C247.3,221.74 266.7913,226.9204 282.2063,231.2404" fill="none" id="CancelOrderUC-to-ViewOrderUC" style="stroke:#008000;stroke-width:0.5;stroke-dasharray:3.5,3.5;"/><polygon fill="#008000" points="285.095,232.05,281.3016,228.9099,282.6877,231.3754,280.2222,232.7615,285.095,232.05" style="stroke:#008000;stroke-width:0.5;"/><text fill="#000000" font-family="sans-serif" font-size="6.5" lengthAdjust="spacing" textLength="23.8481" x="195.5" y="208.5142">includes</text></g><!--link IdempotencyMitigate to ReplayAbuse--><g class="link" data-entity-1="ent0014" data-entity-2="ent0009" data-link-type="dependency" data-source-line="57" id="lnk42"><path d="M145.025,146.435 C168.265,154.02 199.815,164.44 227.5,174 C245.045,180.055 261.9309,186.1189 276.9459,191.5839" fill="none" id="IdempotencyMitigate-to-ReplayAbuse" style="stroke:#008000;stroke-width:0.5;stroke-dasharray:3.5,3.5;"/><polygon fill="#008000" points="279.765,192.61,276.2204,189.1915,277.4158,191.755,274.8523,192.9503,279.765,192.61" style="stroke:#008000;stroke-width:0.5;"/><text fill="#000000" font-family="sans-serif" font-size="6.5" lengthAdjust="spacing" textLength="26.0095" x="194.25" y="159.5142">mitigates</text></g><!--link TokenMitigate to TokenTheftAbuse--><g class="link" data-entity-1="ent0015" data-entity-2="ent0008" data-link-type="dependency" data-source-line="58" id="lnk43"><path d="M337.1,45.51 C360.715,53.39 393.53,64.64 422,75.5 C440.725,82.64 458.6959,90.0922 475.1409,97.1122" fill="none" id="TokenMitigate-to-TokenTheftAbuse" style="stroke:#008000;stroke-width:0.5;stroke-dasharray:3.5,3.5;"/><polygon fill="#008000" points="477.9,98.29,474.5465,94.6839,475.6007,97.3085,472.9761,98.3627,477.9,98.29" style="stroke:#008000;stroke-width:0.5;"/><text fill="#000000" font-family="sans-serif" font-size="6.5" lengthAdjust="spacing" textLength="26.0095" x="388.75" y="59.5142">mitigates</text></g><!--link AuthMitigate to TokenTheftAbuse--><g class="link" data-entity-1="ent0016" data-entity-2="ent0008" data-link-type="dependency" data-source-line="59" id="lnk44"><path d="M337.43,80.82 C369.43,86.57 415.9022,94.9147 453.3722,101.6447" fill="none" id="AuthMitigate-to-TokenTheftAbuse" style="stroke:#008000;stroke-width:0.5;stroke-dasharray:3.5,3.5;"/><polygon fill="#008000" points="456.325,102.175,452.2494,99.411,453.8644,101.733,451.5423,103.348,456.325,102.175" style="stroke:#008000;stroke-width:0.5;"/><text fill="#000000" font-family="sans-serif" font-size="6.5" lengthAdjust="spacing" textLength="26.0095" x="388.75" y="87.0142">mitigates</text></g><!--link ValidationMitigate to InjectionAbuse--><g class="link" data-entity-1="ent0017" data-entity-2="ent0010" data-link-type="dependency" data-source-line="60" id="lnk45"><path d="M141.865,396.76 C151.515,400.17 162.21,403.97 172,407.5 C178.68,409.905 180.01,411.755 187,413 C212,417.435 237.4441,416.1498 260.0091,413.2698" fill="none" id="ValidationMitigate-to-InjectionAbuse" style="stroke:#008000;stroke-width:0.5;stroke-dasharray:3.5,3.5;"/><polygon fill="#008000" points="262.985,412.89,258.268,411.4758,260.5051,413.2065,258.7744,415.4436,262.985,412.89" style="stroke:#008000;stroke-width:0.5;"/><text fill="#000000" font-family="sans-serif" font-size="6.5" lengthAdjust="spacing" textLength="26.0095" x="194.25" y="411.0142">mitigates</text></g><!--link ServerAuthzMitigate to PrivEscalationAbuse--><g class="link" data-entity-1="ent0018" data-entity-2="ent0011" data-link-type="dependency" data-source-line="61" id="lnk46"><path d="M363.105,318.5 C386.1,318.5 409.76,318.5 433.91,318.5" fill="none" id="ServerAuthzMitigate-to-PrivEscalationAbuse" style="stroke:#008000;stroke-width:0.5;stroke-dasharray:3.5,3.5;"/><polygon fill="#008000" points="436.91,318.5,432.41,316.5,434.41,318.5,432.41,320.5,436.91,318.5" style="stroke:#008000;stroke-width:0.5;"/><text fill="#000000" font-family="sans-serif" font-size="6.5" lengthAdjust="spacing" textLength="26.0095" x="388.75" y="316.5142">mitigates</text></g><!--link RateLimitMitigate to DoSAbuse--><g class="link" data-entity-1="ent0019" data-entity-2="ent0012" data-link-type="dependency" data-source-line="62" id="lnk47"><path d="M152.125,260.92 C181.745,263.765 218.9787,267.3383 250.5937,270.3733" fill="none" id="RateLimitMitigate-to-DoSAbuse" style="stroke:#008000;stroke-width:0.5;stroke-dasharray:3.5,3.5;"/><polygon fill="#008000" points="253.58,270.66,249.2917,268.2391,251.0914,270.4211,248.9095,272.2208,253.58,270.66" style="stroke:#008000;stroke-width:0.5;"/><text fill="#000000" font-family="sans-serif" font-size="6.5" lengthAdjust="spacing" textLength="26.0095" x="194.25" y="263.0142">mitigates</text></g><!--link AuditMitigate to BusinessLogicAbuse--><g class="link" data-entity-1="ent0020" data-entity-2="ent0013" data-link-type="dependency" data-source-line="63" id="lnk48"><path d="M158.215,438.59 C167.715,440.09 177.655,441.49 187,442.5 C205.15,444.455 221.9587,445.6266 240.0237,446.5216" fill="none" id="AuditMitigate-to-BusinessLogicAbuse" style="stroke:#008000;stroke-width:0.5;stroke-dasharray:3.5,3.5;"/><polygon fill="#008000" points="243.02,446.67,238.6245,444.4498,240.5231,446.5463,238.4265,448.4449,243.02,446.67" style="stroke:#008000;stroke-width:0.5;"/><text fill="#000000" font-family="sans-serif" font-size="6.5" lengthAdjust="spacing" textLength="26.0095" x="194.25" y="440.5142">mitigates</text></g><?plantuml-src dPPVJzim4C3VyobE88rDeo3jOTgODAcqeA4nmIZmWdXmdIFrwjYLxNGBqxxxBdPQaiPB1tsgVNU_dE-VlGTNk4JZC0N9Ibsu8v3uuC1fC2ARkNtWEbymxi2wKk8d6375KSA5IT60K5mMALgu5VWpx2KjSqY5GUw4LecT2xLWXkL0k3dBS581eH8pbKbC4lgADd1Z2HB-3fqZLLecjGdi70jD7ZYXcArzc9JMORu3lvC4w5TOvCoIvgLa78FE3f2sN_lbpQYj-UIyLwoMKRtcqRrcs5ZfjfLl52lSJ1lnIA4DdXx2a7DTA0VNR8vwMLEkzHpLzOp2DfoIEUoUdex6utTjt1KkA3-461SBAJXppQC5OO_rDoOVjCd9aqCuKpz2Hk2IbLApr2FMkpsKIoEMGYAbuSHo9fc77DQ7koYS5Id2XEi5Xe2J-fDY3tUCIZ09-W4cQ9Q2ilOwC4-brkaR3nlhIG_X2zNQOCbaWUJFoI-EriBtegeJLuAtyv3ZmWf5idET2Tx6jNbdAUOBxL3n4hvYQU4LZ36j8q-72I5xKlecdCYgdEoEFfoy7triqoPK1cuWnPBYxvDjuMtLThe1y_jRCCvebS6GoehykJeUZhnbjTvYo6UOCxXbKgGXQMHUQP-BN3WRYdujtCAY3A4P-5GFwm8FpD4C-Jp0Wb8bVkoddLsIArN3D_mHAWj5JJj-enynB5BXW3AQaI7HXahdJ9QKBnSAkWvI6W5val_yOF2vEo3Mais9i1P41i1gPddvHcjt5HgTsnMsUx8hZpHOLsdLE5r9jnl22PfnWC7Thi5qVwfbUjyz41o1cncac2ggxMcvrRuvgPvhkp6YdciU6qVFPQodq7CD8vDd4-4PZKfxIUXxpF_d-9xHgkcN1h4Nigq8Uet_cG9lkhTwdxHU9aVLUuG70LEW_ULIL4sS5zR1585DwIb2IilgAK3pv44OwoBE7DpjPWPHtH-qfW8vi_fWy2DsDmngs_sKsHb68f7NcjOZsZT2nBXR46r0ws9uWNtaIeXGEbtPXiIkWWWbNbTjLFT2Y80QvR4PZRJVCjgYJupaJ_8N?></g></svg>