<?plantuml 1.2026.2?><svg xmlns="http://www.w3.org/2000/svg" xmlns:xlink="http://www.w3.org/1999/xlink" contentStyleType="text/css" data-diagram-type="DESCRIPTION" height="844px" preserveAspectRatio="none" style="width:635px;height:844px;background:#FFFFFF;" version="1.1" viewBox="0 0 635 844" width="635.2px" zoomAndPan="magnify"><defs/><g><!--cluster BioCantinas Order System--><g class="cluster" data-qualified-name="BioCantinas Order System" data-source-line="7" id="ent0004"><rect fill="none" height="652" rx="2" ry="2" style="stroke:#181818;stroke-width:0.8;" width="564" x="66.4" y="5.6"/><text fill="#000000" font-family="sans-serif" font-size="11.2" font-weight="bold" lengthAdjust="spacing" textLength="141.9086" x="277.4457" y="19.2859">BioCantinas Order System</text></g><!--entity PlaceOrderUC--><g class="entity" data-qualified-name="BioCantinas Order System.PlaceOrderUC" data-source-line="9" id="ent0005"><ellipse cx="177.0546" cy="322.5337" fill="#F1F1F1" rx="44.6546" ry="12.9337" style="stroke:#181818;stroke-width:0.4;"/><text fill="#000000" font-family="sans-serif" font-size="11.2" lengthAdjust="spacing" textLength="59.757" x="147.1761" y="327.1821">Place Order</text></g><!--entity ViewOrderUC--><g class="entity" data-qualified-name="BioCantinas Order System.ViewOrderUC" data-source-line="10" id="ent0006"><ellipse cx="177.2096" cy="376.1337" fill="#F1F1F1" rx="42.0096" ry="12.9337" style="stroke:#181818;stroke-width:0.4;"/><text fill="#000000" font-family="sans-serif" font-size="11.2" lengthAdjust="spacing" textLength="56.0164" x="149.2014" y="380.7821">View Order</text></g><!--entity CancelOrderUC--><g class="entity" data-qualified-name="BioCantinas Order System.CancelOrderUC" data-source-line="11" id="ent0007"><ellipse cx="177.0961" cy="429.7337" fill="#F1F1F1" rx="49.4961" ry="12.9337" style="stroke:#181818;stroke-width:0.4;"/><text fill="#000000" font-family="sans-serif" font-size="11.2" lengthAdjust="spacing" textLength="66.6039" x="143.7941" y="434.3821">Cancel Order</text></g><!--entity TokenTheftAbuse--><g class="entity" data-qualified-name="BioCantinas Order System.TokenTheftAbuse" data-source-line="13" id="ent0008"><ellipse cx="502.9561" cy="144.7512" fill="#FFCDD2" rx="108.1561" ry="23.5512" style="stroke:#181818;stroke-width:0.4;"/><text fill="#000000" font-family="sans-serif" font-size="11.2" lengthAdjust="spacing" textLength="197.9633" x="403.9744" y="149.3997">Unauthorized Order / Account Takeover</text></g><!--entity ReplayAbuse--><g class="entity" data-qualified-name="BioCantinas Order System.ReplayAbuse" data-source-line="14" id="ent0009"><ellipse cx="502.9397" cy="278.3479" fill="#FFCDD2" rx="74.1397" ry="16.7479" style="stroke:#181818;stroke-width:0.4;"/><text fill="#000000" font-family="sans-serif" font-size="11.2" lengthAdjust="spacing" textLength="122.6313" x="441.6241" y="282.9964">Replay / Duplicate Order</text></g><!--entity InjectionAbuse--><g class="entity" data-qualified-name="BioCantinas Order System.InjectionAbuse" data-source-line="15" id="ent0010"><ellipse cx="502.6384" cy="342.5277" fill="#FFCDD2" rx="85.0384" ry="18.9277" style="stroke:#181818;stroke-width:0.4;"/><text fill="#000000" font-family="sans-serif" font-size="11.2" lengthAdjust="spacing" textLength="147.5414" x="428.8676" y="347.1761">Malformed / Injection Payload</text></g><!--entity PrivEscalationAbuse--><g class="entity" data-qualified-name="BioCantinas Order System.PrivEscalationAbuse" data-source-line="16" id="ent0011"><ellipse cx="502.8844" cy="550.4969" fill="#FFCDD2" rx="114.8844" ry="24.8969" style="stroke:#181818;stroke-width:0.4;"/><text fill="#000000" font-family="sans-serif" font-size="11.2" lengthAdjust="spacing" textLength="212.2805" x="396.7441" y="555.1453">Privilege Escalation / Order Outside Scope</text></g><!--entity DoSAbuse--><g class="entity" data-qualified-name="BioCantinas Order System.DoSAbuse" data-source-line="17" id="ent0012"><ellipse cx="502.7793" cy="623.1959" fill="#FFCDD2" rx="88.3793" ry="19.5959" style="stroke:#181818;stroke-width:0.4;"/><text fill="#000000" font-family="sans-serif" font-size="11.2" lengthAdjust="spacing" textLength="154.9898" x="425.2844" y="627.8443">Denial of Service (Order Flood)</text></g><!--entity BusinessLogicAbuse--><g class="entity" data-qualified-name="BioCantinas Order System.BusinessLogicAbuse" data-source-line="18" id="ent0013"><ellipse cx="502.7843" cy="475.3569" fill="#FFCDD2" rx="99.1843" ry="21.7569" style="stroke:#181818;stroke-width:0.4;"/><text fill="#000000" font-family="sans-serif" font-size="11.2" lengthAdjust="spacing" textLength="178.6641" x="413.4522" y="480.0053">High-value / Excess Quantity Abuse</text></g><!--entity IdempotencyMitigate--><g class="entity" data-qualified-name="BioCantinas Order System.IdempotencyMitigate" data-source-line="20" id="ent0014"><ellipse cx="177.2974" cy="184.0995" fill="#C8E6C9" rx="96.8974" ry="21.2995" style="stroke:#181818;stroke-width:0.4;"/><text fill="#000000" font-family="sans-serif" font-size="11.2" lengthAdjust="spacing" textLength="173.6984" x="90.4482" y="188.7479">Idempotency Keys &amp; Deduplication</text></g><!--entity TokenMitigate--><g class="entity" data-qualified-name="BioCantinas Order System.TokenMitigate" data-source-line="21" id="ent0015"><ellipse cx="177.2288" cy="114.2458" fill="#C8E6C9" rx="91.6288" ry="20.2458" style="stroke:#181818;stroke-width:0.4;"/><text fill="#000000" font-family="sans-serif" font-size="11.2" lengthAdjust="spacing" textLength="162.1703" x="96.1437" y="118.8942">Short-lived Tokens + Revocation</text></g><!--entity AuthMitigate--><g class="entity" data-qualified-name="BioCantinas Order System.AuthMitigate" data-source-line="22" id="ent0016"><ellipse cx="177.1449" cy="50.389" fill="#C8E6C9" rx="66.3449" ry="15.189" style="stroke:#181818;stroke-width:0.4;"/><text fill="#000000" font-family="sans-serif" font-size="11.2" lengthAdjust="spacing" textLength="103.9609" x="125.1644" y="55.0374">Strong Auth &amp; RBAC</text></g><!--entity ValidationMitigate--><g class="entity" data-qualified-name="BioCantinas Order System.ValidationMitigate" data-source-line="23" id="ent0017"><ellipse cx="177.2515" cy="253.5303" fill="#C8E6C9" rx="92.0515" ry="20.3303" style="stroke:#181818;stroke-width:0.4;"/><text fill="#000000" font-family="sans-serif" font-size="11.2" lengthAdjust="spacing" textLength="163.1" x="95.7015" y="258.1787">Schema Validation &amp; Rate Limits</text></g><!--entity ServerAuthzMitigate--><g class="entity" data-qualified-name="BioCantinas Order System.ServerAuthzMitigate" data-source-line="24" id="ent0018"><ellipse cx="177.0665" cy="562.2133" fill="#C8E6C9" rx="93.4665" ry="20.6133" style="stroke:#181818;stroke-width:0.4;"/><text fill="#000000" font-family="sans-serif" font-size="11.2" lengthAdjust="spacing" textLength="166.2063" x="93.9634" y="566.8617">Server-side Authorization Checks</text></g><!--entity RateLimitMitigate--><g class="entity" data-qualified-name="BioCantinas Order System.RateLimitMitigate" data-source-line="25" id="ent0019"><ellipse cx="177.0944" cy="627.8189" fill="#C8E6C9" rx="71.4944" ry="16.2189" style="stroke:#181818;stroke-width:0.4;"/><text fill="#000000" font-family="sans-serif" font-size="11.2" lengthAdjust="spacing" textLength="116.3969" x="118.896" y="632.4673">IP &amp; User Rate Limiting</text></g><!--entity AuditMitigate--><g class="entity" data-qualified-name="BioCantinas Order System.AuditMitigate" data-source-line="26" id="ent0020"><ellipse cx="177.2472" cy="491.9294" fill="#C8E6C9" rx="98.0472" ry="21.5294" style="stroke:#181818;stroke-width:0.4;"/><text fill="#000000" font-family="sans-serif" font-size="11.2" lengthAdjust="spacing" textLength="176.1977" x="89.1484" y="496.5779">Audit Logging &amp; Anomaly Detection</text></g><!--entity User--><g class="entity" data-qualified-name="User" data-source-line="4" id="ent0002"><ellipse cx="16.6234" cy="351.2" fill="#F1F1F1" rx="6.4" ry="6.4" style="stroke:#181818;stroke-width:0.4;"/><path d="M16.6234,357.6 L16.6234,379.2 M6.2234,364 L27.0234,364 M16.6234,379.2 L6.2234,391.2 M16.6234,379.2 L27.0234,391.2" fill="none" style="stroke:#181818;stroke-width:0.4;"/><text fill="#000000" font-family="sans-serif" font-size="11.2" lengthAdjust="spacing" textLength="23.6469" x="4.8" y="404.4859">User</text></g><!--entity Attacker--><g class="entity" data-qualified-name="Attacker" data-source-line="5" id="ent0003"><ellipse cx="177.3406" cy="720" fill="#F1F1F1" rx="6.4" ry="6.4" style="stroke:#181818;stroke-width:0.4;"/><path d="M177.3406,726.4 L177.3406,748 M166.9406,732.8 L187.7406,732.8 M177.3406,748 L166.9406,760 M177.3406,748 L187.7406,760" fill="none" style="stroke:#181818;stroke-width:0.4;"/><text fill="#000000" font-family="sans-serif" font-size="11.2" lengthAdjust="spacing" textLength="41.0813" x="156.8" y="773.2859">Attacker</text></g><!--link User to PlaceOrderUC--><g class="link" data-entity-1="ent0002" data-entity-2="ent0005" data-link-type="dependency" data-source-line="28" id="lnk21"><path d="M28.872,367.224 C37.088,361.224 48.704,353.536 60,348.8 C84.464,338.552 108.8322,332.7814 131.8162,328.7494" fill="none" id="User-to-PlaceOrderUC" style="stroke:#181818;stroke-width:0.8;"/><polygon fill="#181818" points="136.544,327.92,128.8994,326.0122,132.6042,328.6112,130.0052,332.3159,136.544,327.92" style="stroke:#181818;stroke-width:0.8;"/></g><!--link User to ViewOrderUC--><g class="link" data-entity-1="ent0002" data-entity-2="ent0006" data-link-type="dependency" data-source-line="29" id="lnk22"><path d="M29.024,376 C50.856,376 94.688,376 130.136,376" fill="none" id="User-to-ViewOrderUC" style="stroke:#181818;stroke-width:0.8;"/><polygon fill="#181818" points="134.936,376,127.736,372.8,130.936,376,127.736,379.2,134.936,376" style="stroke:#181818;stroke-width:0.8;"/></g><!--link User to CancelOrderUC--><g class="link" data-entity-1="ent0002" data-entity-2="ent0007" data-link-type="dependency" data-source-line="30" id="lnk23"><path d="M28.92,384.488 C37.16,390.296 48.784,397.752 60,402.4 C83.672,412.224 106.8761,418.0016 129.4441,422.2816" fill="none" id="User-to-CancelOrderUC" style="stroke:#181818;stroke-width:0.8;"/><polygon fill="#181818" points="134.16,423.176,127.6823,418.6905,130.23,422.4307,126.4898,424.9784,134.16,423.176" style="stroke:#181818;stroke-width:0.8;"/></g><!--link Attacker to TokenTheftAbuse--><g class="link" data-entity-1="ent0003" data-entity-2="ent0008" data-link-type="dependency" data-source-line="32" id="lnk24"><path d="M197.68,734.312 C243.48,709.704 354.096,649.12 364,632.8 C408.544,559.408 350.616,324.488 388,247.2 C404.568,212.96 434.2309,187.7153 460.6869,169.7233" fill="none" id="Attacker-to-TokenTheftAbuse" style="stroke:#181818;stroke-width:0.8;"/><polygon fill="#181818" points="464.656,167.024,456.9028,168.4269,461.3484,169.2734,460.5019,173.719,464.656,167.024" style="stroke:#181818;stroke-width:0.8;"/></g><!--link Attacker to ReplayAbuse--><g class="link" data-entity-1="ent0003" data-entity-2="ent0009" data-link-type="dependency" data-source-line="33" id="lnk25"><path d="M197.84,740.592 C241.44,730.904 343.344,705.776 364,678.4 C413.472,612.848 336.08,373.24 388,309.6 C399.024,296.088 410.6682,289.3861 427.4922,284.7541" fill="none" id="Attacker-to-ReplayAbuse" style="stroke:#181818;stroke-width:0.8;"/><polygon fill="#181818" points="432.12,283.48,424.3289,282.306,428.2635,284.5418,426.0277,288.4764,432.12,283.48" style="stroke:#181818;stroke-width:0.8;"/></g><!--link Attacker to InjectionAbuse--><g class="link" data-entity-1="ent0003" data-entity-2="ent0010" data-link-type="dependency" data-source-line="34" id="lnk26"><path d="M197.888,748.12 C236.392,753.272 321.072,758.216 364,711.2 C404.92,666.392 360.12,493.096 388,439.2 C406.192,404.032 439.0812,378.9336 466.0012,362.3496" fill="none" id="Attacker-to-InjectionAbuse" style="stroke:#181818;stroke-width:0.8;"/><polygon fill="#181818" points="470.088,359.832,462.2795,360.8839,466.6824,361.93,465.6363,366.3329,470.088,359.832" style="stroke:#181818;stroke-width:0.8;"/></g><!--link Attacker to PrivEscalationAbuse--><g class="link" data-entity-1="ent0003" data-entity-2="ent0011" data-link-type="dependency" data-source-line="35" id="lnk27"><path d="M197.624,757.256 C234.912,779.176 316.528,818.576 364,776.8 C426.968,721.392 335.024,654.64 388,589.6 C395.864,579.952 401.9169,574.7664 413.1969,569.2704" fill="none" id="Attacker-to-PrivEscalationAbuse" style="stroke:#181818;stroke-width:0.8;"/><polygon fill="#181818" points="417.512,567.168,409.6378,567.445,413.9161,568.92,412.441,573.1984,417.512,567.168" style="stroke:#181818;stroke-width:0.8;"/></g><!--link Attacker to DoSAbuse--><g class="link" data-entity-1="ent0003" data-entity-2="ent0012" data-link-type="dependency" data-source-line="36" id="lnk28"><path d="M197.696,761.768 C232.408,789.504 306.288,838.688 364,809.6 C434.656,774 476.3416,687.6775 492.7416,647.4055" fill="none" id="Attacker-to-DoSAbuse" style="stroke:#181818;stroke-width:0.8;"/><polygon fill="#181818" points="494.552,642.96,488.8728,648.4214,493.0434,646.6646,494.8002,650.8352,494.552,642.96" style="stroke:#181818;stroke-width:0.8;"/></g><!--link Attacker to BusinessLogicAbuse--><g class="link" data-entity-1="ent0003" data-entity-2="ent0013" data-link-type="dependency" data-source-line="37" id="lnk29"><path d="M197.856,752.288 C235.552,765.056 317.816,785.848 364,744 C402.536,709.08 355.144,551.52 388,511.2 C396.72,500.504 404.1697,494.7833 416.9857,489.4393" fill="none" id="Attacker-to-BusinessLogicAbuse" style="stroke:#181818;stroke-width:0.8;"/><polygon fill="#181818" points="421.416,487.592,413.539,487.4095,417.7241,489.1314,416.0021,493.3165,421.416,487.592" style="stroke:#181818;stroke-width:0.8;"/></g><!--link PlaceOrderUC to TokenTheftAbuse--><g class="link" data-entity-1="ent0005" data-entity-2="ent0008" data-link-type="dependency" data-source-line="39" id="lnk30"><path d="M216.616,316.264 C236.176,311.432 259.12,302.912 275.2,288 C294.576,270.032 280.488,252.264 299.2,233.6 C310.56,222.272 388.9436,189.7194 445.1756,167.2154" fill="none" id="PlaceOrderUC-to-TokenTheftAbuse" style="stroke:#FF0000;stroke-width:1.6;"/><polygon fill="#FF0000" points="449.632,165.432,441.7585,165.1362,445.9183,166.9182,444.1364,171.0781,449.632,165.432" style="stroke:#FF0000;stroke-width:1.6;"/><text fill="#000000" font-family="sans-serif" font-size="10.4" lengthAdjust="spacing" textLength="63.6035" x="300" y="199.2227">threatened by</text></g><!--link PlaceOrderUC to ReplayAbuse--><g class="link" data-entity-1="ent0005" data-entity-2="ent0009" data-link-type="dependency" data-source-line="40" id="lnk31"><path d="M218.056,316.96 C273.336,309.456 368.8196,296.4854 434.2036,287.6134" fill="none" id="PlaceOrderUC-to-ReplayAbuse" style="stroke:#FF0000;stroke-width:1.6;"/><polygon fill="#FF0000" points="438.96,286.968,431.3951,284.7652,434.9963,287.5058,432.2556,291.107,438.96,286.968" style="stroke:#FF0000;stroke-width:1.6;"/><text fill="#000000" font-family="sans-serif" font-size="10.4" lengthAdjust="spacing" textLength="63.6035" x="300" y="295.2227">threatened by</text></g><!--link PlaceOrderUC to InjectionAbuse--><g class="link" data-entity-1="ent0005" data-entity-2="ent0010" data-link-type="dependency" data-source-line="41" id="lnk32"><path d="M218.048,327.712 C241.632,330.64 272.064,334.056 299.2,336 C338.024,338.792 376.3214,340.2431 412.7614,341.1311" fill="none" id="PlaceOrderUC-to-InjectionAbuse" style="stroke:#FF0000;stroke-width:1.6;"/><polygon fill="#FF0000" points="417.56,341.248,410.4401,337.8735,413.5612,341.1506,410.2842,344.2716,417.56,341.248" style="stroke:#FF0000;stroke-width:1.6;"/><text fill="#000000" font-family="sans-serif" font-size="10.4" lengthAdjust="spacing" textLength="63.6035" x="300" y="332.8227">threatened by</text></g><!--link PlaceOrderUC to PrivEscalationAbuse--><g class="link" data-entity-1="ent0005" data-entity-2="ent0011" data-link-type="dependency" data-source-line="42" id="lnk33"><path d="M221.056,325.24 C239.72,328.52 260.592,335.24 275.2,348.8 C298.688,370.608 279.736,391.336 299.2,416.8 C320.464,444.624 341.136,435.088 364,461.6 C379.784,479.912 369.92,494.368 388,510.4 C398.432,519.656 406.7193,524.9473 419.8073,530.4513" fill="none" id="PlaceOrderUC-to-PrivEscalationAbuse" style="stroke:#FF0000;stroke-width:1.6;"/><polygon fill="#FF0000" points="424.232,532.312,418.8355,526.5711,420.5448,530.7614,416.3545,532.4707,424.232,532.312" style="stroke:#FF0000;stroke-width:1.6;"/><text fill="#000000" font-family="sans-serif" font-size="10.4" lengthAdjust="spacing" textLength="63.6035" x="300" y="413.6227">threatened by</text></g><!--link PlaceOrderUC to DoSAbuse--><g class="link" data-entity-1="ent0005" data-entity-2="ent0012" data-link-type="dependency" data-source-line="43" id="lnk34"><path d="M221.8,323.944 C240.848,326.936 261.824,333.792 275.2,348.8 C322.576,401.96 261.992,446.496 299.2,507.2 C317.712,537.4 339.24,528.272 364,553.6 C377.232,567.144 372.728,577.608 388,588.8 C401.504,598.704 413.2932,604.3436 429.3652,609.3996" fill="none" id="PlaceOrderUC-to-DoSAbuse" style="stroke:#FF0000;stroke-width:1.6;"/><polygon fill="#FF0000" points="433.944,610.84,428.0361,605.6269,430.1284,609.6397,426.1156,611.7319,433.944,610.84" style="stroke:#FF0000;stroke-width:1.6;"/><text fill="#000000" font-family="sans-serif" font-size="10.4" lengthAdjust="spacing" textLength="63.6035" x="300" y="504.0227">threatened by</text></g><!--link PlaceOrderUC to BusinessLogicAbuse--><g class="link" data-entity-1="ent0005" data-entity-2="ent0013" data-link-type="dependency" data-source-line="44" id="lnk35"><path d="M213.776,329.912 C232.44,334.384 255.44,340.752 275.2,348.8 C280.168,350.832 399.1499,417.4833 461.8459,452.6593" fill="none" id="PlaceOrderUC-to-BusinessLogicAbuse" style="stroke:#FF0000;stroke-width:1.6;"/><polygon fill="#FF0000" points="466.032,455.008,461.3186,448.6942,462.5435,453.0508,458.187,454.2758,466.032,455.008" style="stroke:#FF0000;stroke-width:1.6;"/><text fill="#000000" font-family="sans-serif" font-size="10.4" lengthAdjust="spacing" textLength="63.6035" x="300" y="360.0227">threatened by</text></g><!--link IdempotencyMitigate to ReplayAbuse--><g class="link" data-entity-1="ent0014" data-entity-2="ent0009" data-link-type="dependency" data-source-line="46" id="lnk36"><path d="M247.64,169.44 C283.28,164.848 326.864,163.728 364,176 C415.552,193.04 460.2221,234.1509 483.6701,258.4949" fill="none" id="IdempotencyMitigate-to-ReplayAbuse" style="stroke:#008000;stroke-width:0.8;stroke-dasharray:5.6,5.6;"/><polygon fill="#008000" points="487,261.952,484.3099,254.5464,484.2251,259.0711,479.7004,258.9862,487,261.952" style="stroke:#008000;stroke-width:0.8;"/><text fill="#000000" font-family="sans-serif" font-size="10.4" lengthAdjust="spacing" textLength="41.6152" x="310.8" y="163.2227">mitigates</text></g><!--link TokenMitigate to TokenTheftAbuse--><g class="link" data-entity-1="ent0015" data-entity-2="ent0008" data-link-type="dependency" data-source-line="47" id="lnk37"><path d="M264.88,120.44 C296.152,122.792 331.68,125.68 364,128.8 C378.288,130.184 388.6136,131.2514 403.3736,132.8994" fill="none" id="TokenMitigate-to-TokenTheftAbuse" style="stroke:#008000;stroke-width:0.8;stroke-dasharray:5.6,5.6;"/><polygon fill="#008000" points="408.144,133.432,401.3435,129.4528,404.1687,132.9881,400.6334,135.8133,408.144,133.432" style="stroke:#008000;stroke-width:0.8;"/><text fill="#000000" font-family="sans-serif" font-size="10.4" lengthAdjust="spacing" textLength="41.6152" x="310.8" y="120.8227">mitigates</text></g><!--link AuthMitigate to TokenTheftAbuse--><g class="link" data-entity-1="ent0016" data-entity-2="ent0008" data-link-type="dependency" data-source-line="48" id="lnk38"><path d="M220.568,61.968 C258.32,72.312 314.936,88.008 364,102.4 C389.016,109.744 411.8944,116.6935 435.6864,124.0535" fill="none" id="AuthMitigate-to-TokenTheftAbuse" style="stroke:#008000;stroke-width:0.8;stroke-dasharray:5.6,5.6;"/><polygon fill="#008000" points="440.272,125.472,434.3393,120.2871,436.4507,124.2899,432.4479,126.4012,440.272,125.472" style="stroke:#008000;stroke-width:0.8;"/><text fill="#000000" font-family="sans-serif" font-size="10.4" lengthAdjust="spacing" textLength="41.6152" x="310.8" y="82.4227">mitigates</text></g><!--link ValidationMitigate to InjectionAbuse--><g class="link" data-entity-1="ent0017" data-entity-2="ent0010" data-link-type="dependency" data-source-line="49" id="lnk39"><path d="M268.248,250.64 C300.272,253.152 335.432,260.232 364,276.8 C379.376,285.728 373.4,298.664 388,308.8 C402.24,318.688 414.8004,324.3314 431.4484,329.2994" fill="none" id="ValidationMitigate-to-InjectionAbuse" style="stroke:#008000;stroke-width:0.8;stroke-dasharray:5.6,5.6;"/><polygon fill="#008000" points="436.048,330.672,430.0637,325.5468,432.215,329.5282,428.2336,331.6795,436.048,330.672" style="stroke:#008000;stroke-width:0.8;"/><text fill="#000000" font-family="sans-serif" font-size="10.4" lengthAdjust="spacing" textLength="41.6152" x="310.8" y="252.0227">mitigates</text></g><!--link ServerAuthzMitigate to PrivEscalationAbuse--><g class="link" data-entity-1="ent0018" data-entity-2="ent0011" data-link-type="dependency" data-source-line="50" id="lnk40"><path d="M264.352,570.08 C276.056,570.88 287.92,571.56 299.2,572 C327.976,573.144 335.288,574.24 364,572 C380.32,570.736 392.8735,569.3195 409.5135,566.9115" fill="none" id="ServerAuthzMitigate-to-PrivEscalationAbuse" style="stroke:#008000;stroke-width:0.8;stroke-dasharray:5.6,5.6;"/><polygon fill="#008000" points="414.264,566.224,406.6799,564.0882,410.3052,566.7969,407.5965,570.4222,414.264,566.224" style="stroke:#008000;stroke-width:0.8;"/><text fill="#000000" font-family="sans-serif" font-size="10.4" lengthAdjust="spacing" textLength="41.6152" x="310.8" y="568.8227">mitigates</text></g><!--link RateLimitMitigate to DoSAbuse--><g class="link" data-entity-1="ent0019" data-entity-2="ent0012" data-link-type="dependency" data-source-line="51" id="lnk41"><path d="M248.704,626.952 C297.392,626.232 357.6245,625.3429 409.6005,624.5749" fill="none" id="RateLimitMitigate-to-DoSAbuse" style="stroke:#008000;stroke-width:0.8;stroke-dasharray:5.6,5.6;"/><polygon fill="#008000" points="414.4,624.504,407.1535,621.4107,410.4004,624.5631,407.2481,627.81,414.4,624.504" style="stroke:#008000;stroke-width:0.8;"/><text fill="#000000" font-family="sans-serif" font-size="10.4" lengthAdjust="spacing" textLength="41.6152" x="310.8" y="622.4227">mitigates</text></g><!--link AuditMitigate to BusinessLogicAbuse--><g class="link" data-entity-1="ent0020" data-entity-2="ent0013" data-link-type="dependency" data-source-line="52" id="lnk42"><path d="M272.8,487.088 C314.728,484.912 359.1584,482.608 401.2224,480.432" fill="none" id="AuditMitigate-to-BusinessLogicAbuse" style="stroke:#008000;stroke-width:0.8;stroke-dasharray:5.6,5.6;"/><polygon fill="#008000" points="406.016,480.184,398.6603,477.3602,402.0213,480.3906,398.9909,483.7517,406.016,480.184" style="stroke:#008000;stroke-width:0.8;"/><text fill="#000000" font-family="sans-serif" font-size="10.4" lengthAdjust="spacing" textLength="41.6152" x="310.8" y="480.0227">mitigates</text></g><?plantuml-src dPHHRzCm4CVVyobEcuH0h9h40m8UaB9s4nERLjPkBuW7pxwbfevTsKuXGtntBdRM9OtLglIfzltl5_l-vrFuwC4RiB9OU13I8lVIwCmjfLunoqfOCRva1SvyhH2QCDE5mYnZt1iBTmvj-pVtdgIqpDeKE3gJPioqbvevkB42BSngvx4yWZzP1lIh77BcI3bLZ6FK706fmpeixyPzvRt4NnrXiqpgwCCSLKSPDvwrVV6TPfLV62kVKBGdFOMSSrDf3tEsHBDkANEpH3rVKDdo1qg7uukByMJohe-xnPLYDI4crKf9pdptQZ6u8_kQgKTZIph9ALpgdz4HcB9Q6IO2OhExWpArSYqLaWtdZZF50kIqlTnDvPqK23DkLXWBJl8NuGxk1BLa2imZpD2k9RdsEZ8lb37YJO1Dp6m7uGlrscZDL8LqdlFV79s3RrNJ9xw6a1SWPvMJcc9Nff2yZ-lpBWMMA-DHyng-OktW5KnGj9MdoyIIlOYkfPT5uydn-CFv-_77Fcr6RU17Igwf_i5i1s_9ixNfmCB-7eotHXUGKrlHUMxFyd78RDPx4la2ImRtJ4aHJQFqHdqbI-bTRFfDS0-B748x2bRdROD7vdY1V1bXKTI4dtRJBgTqbER1TyuZTH6RcdR2ncv4NWdfWHmjA95ekJObKpNvvMD3jqKI2L0WXS-FHf-70s8JsPu8cq1Y03pFh13VUjf3GUVb3eFzDpcC9nxOKFJyS8QHuMk8D-ZM0KRVZosAamUZn8_XXU0J-8L5ggcctdwez-Pt9zMXkLiZwj3qr3WwbB6PGeSc9YRFDY8mKZE5K8L5r2U2kGKcobYsIXSG_KcII1vws0Vq1if_v2T6IO8oSBCFIOsG12LjQXyr72G9KCVPxMg8tPb9QryOsT_i7m00?></g></svg>